<?xml version="1.0" encoding="utf-8"?>
<!-- Generator: Adobe Illustrator 15.0.0, SVG Export Plug-In . SVG Version: 6.00 Build 0)  -->
<!DOCTYPE svg PUBLIC "-//W3C//DTD SVG 1.1//EN" "http://www.w3.org/Graphics/SVG/1.1/DTD/svg11.dtd">
<svg version="1.1" xmlns="http://www.w3.org/2000/svg" xmlns:xlink="http://www.w3.org/1999/xlink" x="0px" y="0px" width="500px"
	 height="500px" viewBox="0 0 500 500" enable-background="new 0 0 500 500" xml:space="preserve">
<g id="Layer_1" display="none">
	<g id="Layer_1_1_">
		<g id="XMLID_1_" display="inline">
			<path fill="#ED2224" d="M376.453,286.482c1.707,9.451-7.207,18.968-19.885,21.242c-12.679,2.274-24.374-3.511-26.05-12.964
				l-16.631-92.025l-0.536,0.948l-0.536,69.519V476.29c0,13.087-10.592,23.71-23.682,23.71c-13.087,0-23.678-10.623-23.678-23.71
				V338.833H234.54V476.29c0,13.087-10.591,23.71-23.681,23.71c-13.088,0-23.71-10.623-23.71-23.71V338.833v-75.746v-63.828
				l-17.641,97.845c-1.707,9.422-13.373,15.207-26.081,12.963c-12.676-2.31-21.592-11.822-19.885-21.244l27.758-153.771
				c0.378-1.991,1.201-3.825,2.402-5.469v-0.031c0,0,0.126-0.188,0.38-0.506c0.221-0.253,0.41-0.505,0.633-0.694
				c3.604-4.079,17.324-16.883,47.895-16.883c36.323,0,99.993,0,99.993,0s19.252-1.168,33.826,9.073
				c6.447,2.055,11.253,6.418,12.268,12.203L376.453,286.482z"/>
			<path fill="#ED2224" d="M244.848,0c26.175,0,47.388,21.213,47.388,47.357c0,26.175-21.213,47.388-47.388,47.388
				s-47.39-21.213-47.39-47.388C197.458,21.213,218.672,0,244.848,0z"/>
		</g>
		<g display="inline">
			<g>
				<path fill="#ED2224" d="M404.24,281.663l-5.048-2.853c14.407-25.518,22.023-54.586,22.023-84.07
					c0-70.691-42.457-133.194-108.165-159.235l2.138-5.39c32.609,12.924,60.438,35.061,80.476,64.017
					c20.512,29.641,31.354,64.43,31.354,100.608C427.018,225.222,419.143,255.277,404.24,281.663z"/>
			</g>
			<g>
				<path fill="#ED2224" d="M95.758,281.663c-14.899-26.384-22.775-56.441-22.775-86.923c0-36.179,10.842-70.968,31.353-100.608
					c20.037-28.956,47.865-51.093,80.476-64.017l2.136,5.39C121.238,61.546,78.781,124.049,78.781,194.74
					c0,29.484,7.617,58.557,22.026,84.07L95.758,281.663z"/>
			</g>
			<g>
				<path fill="#ED2224" d="M394.403,422.846H105.596c-6.197,0-11.238-5.042-11.238-11.238v-84.451
					c0-6.197,5.042-11.239,11.238-11.239h288.808c6.195,0,11.238,5.042,11.238,11.239v84.451
					C405.643,417.804,400.602,422.846,394.403,422.846z M105.596,321.712c-3,0-5.44,2.44-5.44,5.44v84.453
					c0,3,2.44,5.439,5.44,5.439h288.808c3,0,5.439-2.439,5.439-5.439v-84.453c0-3-2.439-5.44-5.439-5.44H105.596z"/>
			</g>
			<g>
				<path fill="#ED2224" d="M305.779,250.812H194.22c-6.198,0-11.24-5.042-11.24-11.239V12.283c0-6.198,5.042-11.24,11.24-11.24
					h111.559c6.197,0,11.24,5.042,11.24,11.24v227.29C317.02,245.771,311.979,250.812,305.779,250.812z M194.22,6.841
					c-3.001,0-5.442,2.44-5.442,5.442v227.29c0,3.001,2.441,5.441,5.442,5.441h111.559c3.003,0,5.442-2.44,5.442-5.441V12.283
					c0-3.002-2.439-5.442-5.442-5.442H194.22z"/>
			</g>
			<g>
				<path fill="#ED2224" d="M267.725,65.456h-35.449c-4.609,0-8.341,3.734-8.341,8.341v107.39c0,4.606,3.731,8.341,8.341,8.341
					h35.449c4.609,0,8.342-3.734,8.342-8.341V73.797C276.064,69.19,272.334,65.456,267.725,65.456z M250,132.184
					c-8.928,0-16.16-7.237-16.16-16.161c0-8.923,7.232-16.16,16.16-16.16s16.16,7.237,16.16,16.16
					C266.16,124.946,258.928,132.184,250,132.184z"/>
			</g>
			<g>
				<path fill="#ED2224" d="M428.809,321.712H71.191c-6.197,0-11.239-5.142-11.239-11.46v-22.473
					c0-6.319,5.042-11.461,11.239-11.461h357.618c6.196,0,11.239,5.142,11.239,11.461v22.473
					C440.049,316.57,435.006,321.712,428.809,321.712z M71.191,282.116c-3.001,0-5.441,2.541-5.441,5.663v22.473
					c0,3.122,2.44,5.662,5.441,5.662h357.618c3,0,5.441-2.54,5.441-5.662v-22.473c0-3.122-2.441-5.663-5.441-5.663H71.191z"/>
			</g>
			<g>
				<path fill="#ED2224" d="M488.76,479.146H11.24c-6.198,0-11.24-5.041-11.24-11.239v-39.62c0-6.197,5.042-11.239,11.24-11.239
					h477.52c6.197,0,11.239,5.042,11.239,11.239v39.62C500,474.105,494.957,479.146,488.76,479.146z M11.24,422.846
					c-3.002,0-5.442,2.441-5.442,5.441v39.62c0,3.001,2.44,5.439,5.442,5.439h477.52c3.001,0,5.441-2.438,5.441-5.439v-39.62
					c0-3-2.44-5.441-5.441-5.441H11.24z"/>
			</g>
			<g>
				<path fill="#ED2224" d="M250,498.957c-84.994,0-159.146-8.072-184.52-20.088l2.481-5.24
					c24.282,11.499,99.139,19.53,182.037,19.53c82.896,0,157.756-8.031,182.036-19.53l2.48,5.24
					C409.146,490.884,334.993,498.957,250,498.957z"/>
			</g>
			<g>
				<path fill="#ED2224" d="M153.185,51.303l-2.814-0.691c7.49-30.45,34.912-37.021,35.188-37.083l0.644,2.827l-0.321-1.413
					l0.323,1.412C185.943,16.413,160.237,22.635,153.185,51.303z"/>
			</g>
			<g>
				<g>
					<path fill="#ED2224" d="M274.006,229.402c-6.236,0-11.312-5.072-11.312-11.309c0-6.236,5.072-11.311,11.312-11.311
						c6.235,0,11.309,5.074,11.309,11.311C285.314,224.33,280.241,229.402,274.006,229.402z M274.006,208.959
						c-5.038,0-9.137,4.098-9.137,9.136c0,5.036,4.099,9.134,9.137,9.134c5.036,0,9.135-4.098,9.135-9.134
						C283.141,213.057,279.042,208.959,274.006,208.959z"/>
				</g>
				<g>
					<path fill="#ED2224" d="M274.006,234.909c-9.271,0-16.814-7.543-16.814-16.814c0-9.271,7.543-16.813,16.814-16.813
						c9.271,0,16.813,7.544,16.813,16.813C290.82,227.366,283.277,234.909,274.006,234.909z M274.006,203.453
						c-8.074,0-14.641,6.568-14.641,14.642c0,8.072,6.565,14.641,14.641,14.641c8.072,0,14.641-6.567,14.641-14.641
						C288.646,210.021,282.078,203.453,274.006,203.453z"/>
				</g>
				<g>
					<rect x="284.227" y="217.732" fill="#ED2224" width="5.506" height="0.725"/>
				</g>
				<g>
					
						<rect x="286.321" y="212.684" transform="matrix(-0.2074 -0.9783 0.9783 -0.2074 135.3776 540.564)" fill="#ED2224" width="0.725" height="5.507"/>
				</g>
				<g>
					
						<rect x="285.483" y="210.057" transform="matrix(-0.4066 -0.9136 0.9136 -0.4066 207.6595 560.4932)" fill="#ED2224" width="0.725" height="5.508"/>
				</g>
				<g>
					
						<rect x="284.122" y="207.693" transform="matrix(-0.5883 -0.8086 0.8086 -0.5883 281.6866 564.2988)" fill="#ED2224" width="0.727" height="5.507"/>
				</g>
				<g>
					
						<rect x="282.316" y="205.693" transform="matrix(-0.7444 -0.6677 0.6677 -0.7444 353.934 552.3636)" fill="#ED2224" width="0.725" height="5.506"/>
				</g>
				<g>
					
						<rect x="280.125" y="204.11" transform="matrix(-0.8665 -0.4992 0.4992 -0.8665 420.2686 526.1247)" fill="#ED2224" width="0.726" height="5.507"/>
				</g>
				<g>
					
						<rect x="277.64" y="203.011" transform="matrix(-0.9508 -0.3098 0.3098 -0.9508 478.5946 487.5199)" fill="#ED2224" width="0.725" height="5.505"/>
				</g>
				<g>
					
						<rect x="275.009" y="202.445" transform="matrix(-0.9945 -0.1048 0.1048 -0.9945 527.7178 438.1308)" fill="#ED2224" width="0.727" height="5.506"/>
				</g>
				<g>
					
						<rect x="269.906" y="204.833" transform="matrix(-0.1047 -0.9945 0.9945 -0.1047 97.1286 497.8329)" fill="#ED2224" width="5.505" height="0.725"/>
				</g>
				<g>
					
						<rect x="267.235" y="205.379" transform="matrix(-0.3091 -0.951 0.951 -0.3091 157.7889 526.1084)" fill="#ED2224" width="5.506" height="0.725"/>
				</g>
				<g>
					
						<rect x="264.754" y="206.503" transform="matrix(-0.5001 -0.866 0.866 -0.5001 222.1357 541.9704)" fill="#ED2224" width="5.507" height="0.726"/>
				</g>
				<g>
					
						<rect x="262.571" y="208.115" transform="matrix(-0.6692 -0.7431 0.7431 -0.6692 287.9643 545.1473)" fill="#ED2224" width="5.506" height="0.724"/>
				</g>
				<g>
					
						<rect x="260.733" y="210.109" transform="matrix(-0.8091 -0.5877 0.5877 -0.8091 352.963 535.6119)" fill="#ED2224" width="5.506" height="0.724"/>
				</g>
				<g>
					
						<rect x="259.396" y="212.434" transform="matrix(-0.9135 -0.4067 0.4067 -0.9135 415.0811 513.8207)" fill="#ED2224" width="5.503" height="0.725"/>
				</g>
				<g>
					
						<rect x="258.566" y="215.028" transform="matrix(-0.9781 -0.2081 0.2081 -0.9781 472.0896 480.4476)" fill="#ED2224" width="5.504" height="0.725"/>
				</g>
				<g>
					<rect x="258.275" y="217.732" fill="#ED2224" width="5.507" height="0.725"/>
				</g>
				<g>
					
						<rect x="260.943" y="218.051" transform="matrix(-0.2088 -0.978 0.978 -0.2088 99.9265 522.4528)" fill="#ED2224" width="0.725" height="5.506"/>
				</g>
				<g>
					
						<rect x="261.776" y="220.612" transform="matrix(-0.4069 -0.9135 0.9135 -0.4069 164.7601 553.7079)" fill="#ED2224" width="0.725" height="5.506"/>
				</g>
				<g>
					
						<rect x="263.15" y="222.987" transform="matrix(-0.5882 -0.8087 0.8087 -0.5882 235.9384 571.6251)" fill="#ED2224" width="0.724" height="5.506"/>
				</g>
				<g>
					
						<rect x="264.957" y="224.975" transform="matrix(-0.7426 -0.6697 0.6697 -0.7426 309.8395 574.53)" fill="#ED2224" width="0.723" height="5.505"/>
				</g>
				<g>
					
						<rect x="267.147" y="226.576" transform="matrix(-0.8662 -0.4997 0.4997 -0.8662 384.6371 561.6471)" fill="#ED2224" width="0.726" height="5.506"/>
				</g>
				<g>
					
						<rect x="269.619" y="227.689" transform="matrix(-0.9507 -0.3102 0.3102 -0.9507 455.1754 533.2562)" fill="#ED2224" width="0.724" height="5.506"/>
				</g>
				<g>
					
						<rect x="272.307" y="228.233" transform="matrix(-0.9945 -0.1048 0.1048 -0.9945 519.626 489.2832)" fill="#ED2224" width="0.727" height="5.506"/>
				</g>
				<g>
					
						<rect x="272.651" y="230.648" transform="matrix(-0.1046 -0.9945 0.9945 -0.1046 74.4762 529.0753)" fill="#ED2224" width="5.507" height="0.727"/>
				</g>
				<g>
					
						<rect x="275.258" y="230.085" transform="matrix(-0.309 -0.9511 0.9511 -0.309 144.7306 566.0556)" fill="#ED2224" width="5.506" height="0.725"/>
				</g>
				<g>
					
						<rect x="277.728" y="228.977" transform="matrix(-0.5002 -0.8659 0.8659 -0.5002 222.1918 586.9283)" fill="#ED2224" width="5.508" height="0.726"/>
				</g>
				<g>
					
						<rect x="279.928" y="227.378" transform="matrix(-0.6692 -0.7431 0.7431 -0.6692 302.6027 590.201)" fill="#ED2224" width="5.506" height="0.725"/>
				</g>
				<g>
					
						<rect x="281.753" y="225.354" transform="matrix(-0.8091 -0.5877 0.5877 -0.8091 382.0274 575.5461)" fill="#ED2224" width="5.504" height="0.726"/>
				</g>
				<g>
					
						<rect x="283.109" y="223.021" transform="matrix(-0.9136 -0.4067 0.4067 -0.9136 456.1711 543.7148)" fill="#ED2224" width="5.506" height="0.725"/>
				</g>
				<g>
					
						<rect x="283.955" y="220.396" transform="matrix(-0.9782 -0.2079 0.2079 -0.9782 521.2666 496.2896)" fill="#ED2224" width="5.504" height="0.725"/>
				</g>
			</g>
			<g>
				<g>
					<path fill="#ED2224" d="M225.996,229.402c-6.236,0-11.311-5.072-11.311-11.309c0-6.236,5.073-11.311,11.311-11.311
						c6.235,0,11.309,5.074,11.309,11.311C237.305,224.33,232.232,229.402,225.996,229.402z M225.996,208.959
						c-5.038,0-9.137,4.098-9.137,9.136c0,5.036,4.099,9.134,9.137,9.134c5.037,0,9.135-4.098,9.135-9.134
						C235.131,213.057,231.033,208.959,225.996,208.959z"/>
				</g>
				<g>
					<path fill="#ED2224" d="M225.996,234.909c-9.272,0-16.814-7.543-16.814-16.814c0-9.271,7.542-16.813,16.814-16.813
						c9.271,0,16.814,7.544,16.814,16.813C242.811,227.366,235.268,234.909,225.996,234.909z M225.996,203.453
						c-8.073,0-14.642,6.568-14.642,14.642c0,8.072,6.568,14.641,14.642,14.641c8.072,0,14.641-6.567,14.641-14.641
						C240.637,210.021,234.069,203.453,225.996,203.453z"/>
				</g>
				<g>
					<rect x="236.218" y="217.732" fill="#ED2224" width="5.506" height="0.725"/>
				</g>
				<g>
					
						<rect x="238.309" y="212.658" transform="matrix(-0.2074 -0.9783 0.9783 -0.2074 77.4362 493.5645)" fill="#ED2224" width="0.725" height="5.506"/>
				</g>
				<g>
					
						<rect x="237.483" y="210.07" transform="matrix(-0.4069 -0.9135 0.9135 -0.4069 140.2127 516.6851)" fill="#ED2224" width="0.725" height="5.507"/>
				</g>
				<g>
					
						<rect x="236.137" y="207.711" transform="matrix(-0.5879 -0.809 0.809 -0.5879 205.2666 525.5062)" fill="#ED2224" width="0.724" height="5.505"/>
				</g>
				<g>
					
						<rect x="234.31" y="205.693" transform="matrix(-0.7432 -0.669 0.669 -0.7432 269.6277 520.3725)" fill="#ED2224" width="0.724" height="5.505"/>
				</g>
				<g>
					
						<rect x="232.111" y="204.114" transform="matrix(-0.8662 -0.4998 0.4998 -0.8662 330.4492 502.2321)" fill="#ED2224" width="0.725" height="5.509"/>
				</g>
				<g>
					
						<rect x="229.644" y="203.022" transform="matrix(-0.9508 -0.3098 0.3098 -0.9508 384.9606 472.6744)" fill="#ED2224" width="0.725" height="5.506"/>
				</g>
				<g>
					
						<rect x="226.994" y="202.453" transform="matrix(-0.9945 -0.1051 0.1051 -0.9945 431.8858 433.1714)" fill="#ED2224" width="0.725" height="5.506"/>
				</g>
				<g>
					
						<rect x="221.894" y="204.824" transform="matrix(-0.1047 -0.9945 0.9945 -0.1047 44.0974 450.0733)" fill="#ED2224" width="5.505" height="0.726"/>
				</g>
				<g>
					
						<rect x="219.241" y="205.397" transform="matrix(-0.3093 -0.951 0.951 -0.3093 94.9958 480.5132)" fill="#ED2224" width="5.506" height="0.725"/>
				</g>
				<g>
					
						<rect x="216.747" y="206.486" transform="matrix(-0.5 -0.866 0.866 -0.5 150.1183 500.3663)" fill="#ED2224" width="5.506" height="0.725"/>
				</g>
				<g>
					
						<rect x="214.557" y="208.094" transform="matrix(-0.6692 -0.743 0.743 -0.6692 207.8537 509.4337)" fill="#ED2224" width="5.506" height="0.724"/>
				</g>
				<g>
					
						<rect x="212.765" y="210.101" transform="matrix(-0.809 -0.5878 0.5878 -0.809 266.1587 507.4125)" fill="#ED2224" width="5.506" height="0.725"/>
				</g>
				<g>
					
						<rect x="211.399" y="212.462" transform="matrix(-0.9136 -0.4067 0.4067 -0.9136 323.245 494.3441)" fill="#ED2224" width="5.505" height="0.725"/>
				</g>
				<g>
					
						<rect x="210.521" y="215.059" transform="matrix(-0.9781 -0.208 0.208 -0.9781 377.066 470.4983)" fill="#ED2224" width="5.506" height="0.725"/>
				</g>
				<g>
					<rect x="210.268" y="217.732" fill="#ED2224" width="5.506" height="0.725"/>
				</g>
				<g>
					
						<rect x="212.931" y="218.029" transform="matrix(-0.2075 -0.9782 0.9782 -0.2075 41.576 475.2459)" fill="#ED2224" width="0.725" height="5.505"/>
				</g>
				<g>
					
						<rect x="213.781" y="220.607" transform="matrix(-0.4066 -0.9136 0.9136 -0.4066 97.1632 509.8252)" fill="#ED2224" width="0.725" height="5.505"/>
				</g>
				<g>
					
						<rect x="215.149" y="222.96" transform="matrix(-0.5875 -0.8092 0.8092 -0.5875 159.4839 532.718)" fill="#ED2224" width="0.725" height="5.506"/>
				</g>
				<g>
					
						<rect x="216.945" y="224.975" transform="matrix(-0.7445 -0.6676 0.6676 -0.7445 227.0566 542.3504)" fill="#ED2224" width="0.724" height="5.505"/>
				</g>
				<g>
					
						<rect x="219.144" y="226.589" transform="matrix(-0.8656 -0.5008 0.5008 -0.8656 294.6594 537.778)" fill="#ED2224" width="0.725" height="5.506"/>
				</g>
				<g>
					
						<rect x="221.61" y="227.688" transform="matrix(-0.9508 -0.3098 0.3098 -0.9508 361.648 518.3043)" fill="#ED2224" width="0.725" height="5.505"/>
				</g>
				<g>
					
						<rect x="224.286" y="228.252" transform="matrix(-0.9945 -0.1051 0.1051 -0.9945 423.7731 484.343)" fill="#ED2224" width="0.725" height="5.506"/>
				</g>
				<g>
					
						<rect x="224.614" y="230.637" transform="matrix(-0.1046 -0.9945 0.9945 -0.1046 21.4228 481.2864)" fill="#ED2224" width="5.507" height="0.725"/>
				</g>
				<g>
					
						<rect x="227.288" y="230.08" transform="matrix(-0.3091 -0.951 0.951 -0.3091 81.9758 520.4399)" fill="#ED2224" width="5.504" height="0.724"/>
				</g>
				<g>
					
						<rect x="229.732" y="228.962" transform="matrix(-0.5 -0.866 0.866 -0.5 150.1304 545.3254)" fill="#ED2224" width="5.506" height="0.725"/>
				</g>
				<g>
					
						<rect x="231.9" y="227.377" transform="matrix(-0.6693 -0.743 0.743 -0.6693 222.494 554.5101)" fill="#ED2224" width="5.505" height="0.724"/>
				</g>
				<g>
					
						<rect x="233.738" y="225.377" transform="matrix(-0.8089 -0.5879 0.5879 -0.8089 295.0849 547.3785)" fill="#ED2224" width="5.505" height="0.724"/>
				</g>
				<g>
					
						<rect x="235.11" y="223.016" transform="matrix(-0.9135 -0.4068 0.4068 -0.9135 364.2993 524.1949)" fill="#ED2224" width="5.506" height="0.725"/>
				</g>
				<g>
					
						<rect x="235.92" y="220.435" transform="matrix(-0.9781 -0.208 0.208 -0.9781 426.1896 486.4185)" fill="#ED2224" width="5.506" height="0.725"/>
				</g>
			</g>
			<g>
				<path fill="#ED2224" d="M166.478,397.281h-6.885v-55.803h6.885V397.281z M161.767,395.107h2.536v-51.455h-2.536V395.107z"/>
			</g>
			<g>
				<path fill="#ED2224" d="M177.348,397.281h-6.885v-55.803h6.885V397.281z M172.638,395.107h2.536v-51.455h-2.536V395.107z"/>
			</g>
			<g>
				<path fill="#ED2224" d="M188.219,397.281h-6.885v-55.803h6.885V397.281z M183.508,395.107h2.536v-51.455h-2.536V395.107z"/>
			</g>
			<g>
				<path fill="#ED2224" d="M199.089,397.281h-6.885v-55.803h6.885V397.281z M194.379,395.107h2.536v-51.455h-2.536V395.107z"/>
			</g>
			<g>
				<path fill="#ED2224" d="M209.96,397.281h-6.885v-55.803h6.885V397.281z M205.25,395.107h2.536v-51.455h-2.536V395.107z"/>
			</g>
			<g>
				<path fill="#ED2224" d="M220.831,397.281h-6.886v-55.803h6.886V397.281z M216.12,395.107h2.535v-51.455h-2.535V395.107z"/>
			</g>
			<g>
				<path fill="#ED2224" d="M231.701,397.281h-6.886v-55.803h6.886V397.281z M226.991,395.107h2.535v-51.455h-2.535V395.107z"/>
			</g>
			<g>
				<path fill="#ED2224" d="M242.572,397.281h-6.885v-55.803h6.885V397.281z M237.861,395.107h2.536v-51.455h-2.536V395.107z"/>
			</g>
			<g>
				<path fill="#ED2224" d="M253.441,397.281h-6.884v-55.803h6.884V397.281z M248.732,395.107h2.536v-51.455h-2.536V395.107z"/>
			</g>
			<g>
				<path fill="#ED2224" d="M264.312,397.281h-6.887v-55.803h6.887V397.281z M259.604,395.107h2.535v-51.455h-2.535V395.107z"/>
			</g>
			<g>
				<path fill="#ED2224" d="M275.184,397.281h-6.885v-55.803h6.885V397.281z M270.473,395.107h2.537v-51.455h-2.537V395.107z"/>
			</g>
			<g>
				<path fill="#ED2224" d="M286.055,397.281h-6.885v-55.803h6.885V397.281z M281.344,395.107h2.536v-51.455h-2.536V395.107z"/>
			</g>
			<g>
				<path fill="#ED2224" d="M296.925,397.281h-6.885v-55.803h6.885V397.281z M292.215,395.107h2.535v-51.455h-2.535V395.107z"/>
			</g>
			<g>
				<path fill="#ED2224" d="M307.795,397.281h-6.885v-55.803h6.885V397.281z M303.085,395.107h2.536v-51.455h-2.536V395.107z"/>
			</g>
			<g>
				<path fill="#ED2224" d="M318.665,397.281h-6.885v-55.803h6.885V397.281z M313.954,395.107h2.537v-51.455h-2.537V395.107z"/>
			</g>
			<g>
				<path fill="#ED2224" d="M329.536,397.281h-6.885v-55.803h6.885V397.281z M324.825,395.107h2.536v-51.455h-2.536V395.107z"/>
			</g>
			<g>
				<path fill="#ED2224" d="M340.406,397.281h-6.886v-55.803h6.886V397.281z M335.697,395.107h2.535v-51.455h-2.535V395.107z"/>
			</g>
			<g>
				<rect x="247.101" y="279.218" fill="#ED2224" width="5.797" height="39.595"/>
			</g>
			<g>
				<rect x="68.461" y="279.218" fill="#ED2224" width="0.725" height="39.595"/>
			</g>
			<g>
				<rect x="160.861" y="279.218" fill="#ED2224" width="4.349" height="39.595"/>
			</g>
			<g>
				<rect x="118.103" y="279.218" fill="#ED2224" width="2.899" height="39.595"/>
			</g>
			<g>
				<rect x="96.725" y="279.218" fill="#ED2224" width="2.174" height="39.595"/>
			</g>
			<g>
				<rect x="82.593" y="279.218" fill="#ED2224" width="1.449" height="39.595"/>
			</g>
			<g>
				<rect x="247.101" y="420.562" fill="#ED2224" width="5.797" height="55.566"/>
			</g>
			<g>
				<rect x="31.5" y="420.562" fill="#ED2224" width="2.174" height="55.566"/>
			</g>
			<g>
				<rect x="17.369" y="420.562" fill="#ED2224" width="1.448" height="55.566"/>
			</g>
			<g>
				<rect x="10.484" y="420.562" fill="#ED2224" width="0.726" height="55.566"/>
			</g>
			<g>
				<rect x="160.499" y="420.562" fill="#ED2224" width="5.072" height="55.566"/>
			</g>
			<g>
				<rect x="117.378" y="420.562" fill="#ED2224" width="4.348" height="55.566"/>
			</g>
			<g>
				<rect x="81.505" y="420.562" fill="#ED2224" width="3.624" height="55.566"/>
			</g>
			<g>
				<rect x="52.879" y="420.562" fill="#ED2224" width="2.898" height="55.566"/>
			</g>
			<g>
				<path fill="#ED2224" d="M76.476,177.691l-1.188-0.831c0.102-0.146,10.426-14.752,29.12-29.147
					c17.262-13.293,45.409-29.139,81.471-29.139v1.449c-35.634,0-63.471,15.666-80.548,28.809
					C86.798,163.093,76.577,177.547,76.476,177.691z"/>
			</g>
			<g>
				<polygon fill="#ED2224" points="89.332,260.991 88.17,260.126 140.911,189.287 140.911,127.492 142.361,127.492 
					142.361,189.768 142.217,189.96 				"/>
			</g>
			<g>
				<path fill="#ED2224" d="M403.784,281.663l-5.049-2.853c14.41-25.517,22.024-54.586,22.024-84.07
					c0-70.691-42.458-133.194-108.166-159.235l2.138-5.39c32.61,12.924,60.438,35.061,80.478,64.017
					c20.51,29.641,31.352,64.43,31.352,100.608C426.561,225.222,418.686,255.279,403.784,281.663z"/>
			</g>
			<g>
				<path fill="#ED2224" d="M346.359,51.303c-7.067-28.729-32.759-34.89-33.019-34.948l0.646-2.827
					c0.273,0.062,27.695,6.633,35.188,37.083L346.359,51.303z"/>
			</g>
			<g>
				<rect x="430.357" y="279.218" fill="#ED2224" width="0.726" height="39.595"/>
			</g>
			<g>
				<rect x="334.334" y="279.218" fill="#ED2224" width="4.349" height="39.595"/>
			</g>
			<g>
				<rect x="378.54" y="279.218" fill="#ED2224" width="2.898" height="39.595"/>
			</g>
			<g>
				<rect x="400.645" y="279.218" fill="#ED2224" width="2.177" height="39.595"/>
			</g>
			<g>
				<rect x="415.502" y="279.218" fill="#ED2224" width="1.448" height="39.595"/>
			</g>
			<g>
				<rect x="465.868" y="420.562" fill="#ED2224" width="2.175" height="55.566"/>
			</g>
			<g>
				<rect x="480.727" y="420.562" fill="#ED2224" width="1.448" height="55.566"/>
			</g>
			<g>
				<rect x="488.335" y="420.562" fill="#ED2224" width="0.726" height="55.566"/>
			</g>
			<g>
				<rect x="333.973" y="420.562" fill="#ED2224" width="5.072" height="55.566"/>
			</g>
			<g>
				<rect x="377.816" y="420.562" fill="#ED2224" width="4.349" height="55.566"/>
			</g>
			<g>
				<rect x="414.413" y="420.562" fill="#ED2224" width="3.624" height="55.566"/>
			</g>
			<g>
				<rect x="443.766" y="420.562" fill="#ED2224" width="2.897" height="55.566"/>
			</g>
			<g>
				<path fill="#ED2224" d="M423.066,177.691c-0.102-0.145-10.321-14.599-28.854-28.859c-17.078-13.143-44.914-28.809-80.55-28.809
					v-1.449c36.062,0,64.209,15.846,81.473,29.139c18.693,14.396,29.02,29.001,29.119,29.147L423.066,177.691z"/>
			</g>
			<g>
				<polygon fill="#ED2224" points="410.211,260.991 357.184,189.768 357.184,127.492 358.632,127.492 358.632,189.287 
					411.372,260.126 				"/>
			</g>
			<g>
				<path fill="none" stroke="#ED2224" stroke-width="8" d="M141.636,189.527"/>
			</g>
			<g>
				<rect x="140.911" y="335.986" fill="#ED2224" width="1.449" height="66.673"/>
			</g>
			<g>
				<rect x="97.256" y="368.6" fill="#ED2224" width="44.38" height="1.448"/>
			</g>
			<g>
				<rect x="357.639" y="335.986" fill="#ED2224" width="1.449" height="66.673"/>
			</g>
			<g>
				<rect x="358.363" y="368.6" fill="#ED2224" width="44.38" height="1.448"/>
			</g>
		</g>
	</g>
	<g id="Layer_3">
		<g display="inline">
			<path fill="#231F20" d="M433.469,156.684c-16.801,0-30.424,13.833-30.424,30.898v120.742c0,17.055,13.623,30.887,30.424,30.887
				c16.799,0,30.418-13.832,30.418-30.887V187.582C463.887,170.516,450.268,156.684,433.469,156.684z M66.532,156.684
				c-16.797,0-30.42,13.833-30.42,30.898v120.742c0,17.055,13.623,30.887,30.42,30.887c16.799,0,30.421-13.832,30.421-30.887
				V187.582C96.953,170.516,83.331,156.684,66.532,156.684z"/>
			<path fill="#231F20" d="M115.261,157.625V378.2c0,13.108,10.622,23.723,23.722,23.723h27.109v67.179
				c0,17.066,13.617,30.898,30.416,30.898c16.802,0,30.421-13.832,30.421-30.898v-67.179h47.354v67.179
				c0,17.066,13.614,30.898,30.413,30.898c16.806,0,30.426-13.832,30.426-30.898v-67.179h27.099
				c13.108,0,23.729-10.612,23.729-23.723V157.625H115.261z"/>
			<path fill="#231F20" d="M314.159,43.317L339.168,7.02c1.483-2.157,1.112-4.983-0.824-6.331c-1.941-1.338-4.724-0.668-6.203,1.491
				l-25.977,37.697c-17.111-6.735-36.129-10.496-56.166-10.496c-20.033,0-39.051,3.761-56.164,10.496L167.858,2.18
				c-1.48-2.159-4.256-2.829-6.204-1.491c-1.937,1.347-2.304,4.174-0.819,6.331l25.006,36.297
				c-39.755,18.491-67.634,53.625-71.187,94.646h270.689C381.793,96.942,353.911,61.808,314.159,43.317z M192.903,100.519
				c-8.274,0-14.979-6.706-14.979-14.979c0-8.267,6.704-14.972,14.979-14.972c8.27,0,14.97,6.706,14.97,14.972
				C207.873,93.813,201.172,100.519,192.903,100.519z M308.969,100.519c-8.266,0-14.971-6.706-14.971-14.979
				c0-8.267,6.705-14.972,14.971-14.972c8.274,0,14.979,6.706,14.979,14.972C323.945,93.813,317.243,100.519,308.969,100.519z"/>
		</g>
		<g display="inline">
			<g>
				<g>
					<path fill="#ED2224" d="M326.766,461.994H173.234c-8.076,0-15.708,0-17.935-4.934c-0.787-1.744-1.062-4.587,2.109-8.183
						l0.181-0.188l28.847-28.677c4.167-5.258,5.494-23.508,4.956-39.373l-0.141-4.117h117.496l-0.141,4.117
						c-0.538,15.865,0.789,34.115,4.954,39.373l29.025,28.863c3.173,3.596,2.897,6.438,2.108,8.184
						C342.473,461.994,334.844,461.994,326.766,461.994z M163.917,453.631c2.613,0.4,6.937,0.4,9.316,0.4h153.531
						c2.382,0,6.704,0,9.319-0.4l-28.529-28.383c-6.481-7.762-7.181-28.734-7.005-40.758h-101.1
						c0.176,12.021-0.521,32.994-7.007,40.758l-0.248,0.271L163.917,453.631z"/>
				</g>
			</g>
			<g>
				<path fill="#ED2224" d="M481.366,384.49H18.633C8.357,384.49,0,375.826,0,365.18V57.317c0-10.648,8.356-19.312,18.633-19.312
					h462.733c10.272,0,18.634,8.663,18.634,19.312V365.18C500,375.826,491.643,384.49,481.366,384.49z M18.633,45.968
					c-5.883,0-10.67,5.091-10.67,11.349V365.18c0,6.256,4.787,11.346,10.67,11.346h462.733c5.884,0,10.669-5.09,10.669-11.346
					V57.317c0-6.258-4.785-11.349-10.669-11.349H18.633z"/>
			</g>
			<g>
				<path fill="#ED2224" d="M481.366,41.987H18.633c-8.091,0-14.651,7.112-14.651,15.888v267.943h492.036V57.875
					C496.018,49.099,489.457,41.987,481.366,41.987z M477.051,304.824H22.559V60.762h454.492V304.824z"/>
			</g>
		</g>
		<g display="inline">
			<g>
				<path fill="#ED2224" d="M436.826,302.611H80.025c-3.603,0-6.532-2.934-6.532-6.532V63.906c0-3.604,2.931-6.533,6.532-6.533
					h356.802c3.604,0,6.532,2.931,6.532,6.533v232.173C443.359,299.682,440.43,302.611,436.826,302.611z M80.025,61.394
					c-1.386,0-2.513,1.128-2.513,2.513V296.08c0,1.385,1.127,2.512,2.513,2.512h356.802c1.387,0,2.514-1.127,2.514-2.512V63.906
					c0-1.385-1.127-2.513-2.514-2.513L80.025,61.394L80.025,61.394z"/>
			</g>
			<g>
				<path fill="#ED2224" d="M407.135,281.282H109.718c-2.495,0-4.524-2.03-4.524-4.524V83.228c0-2.495,2.029-4.524,4.524-4.524
					h297.417c2.494,0,4.522,2.029,4.522,4.524v193.53C411.657,279.252,409.629,281.282,407.135,281.282z M109.718,80.211
					c-1.663,0-3.016,1.354-3.016,3.017v193.53c0,1.663,1.353,3.016,3.016,3.016h297.417c1.663,0,3.017-1.353,3.017-3.016V83.228
					c0-1.663-1.354-3.017-3.017-3.017H109.718z"/>
			</g>
			<g>
				<path fill="#ED2224" d="M341.848,258.389H136.31c-6.096,0-11.056-4.959-11.056-11.057V115.668
					c0-6.097,4.96-11.057,11.056-11.057h205.538c6.098,0,11.058,4.96,11.058,11.057v131.664
					C352.903,253.43,347.943,258.389,341.848,258.389z M136.31,107.627c-4.434,0-8.041,3.607-8.041,8.041v131.664
					c0,4.436,3.607,8.041,8.041,8.041h205.538c4.436,0,8.041-3.605,8.041-8.041V115.668c0-4.434-3.605-8.041-8.041-8.041H136.31z"/>
			</g>
			<g>
				<rect x="370.24" y="79.457" fill="#ED2224" width="0.503" height="201.07"/>
			</g>
			<g>
				<g>
					<path fill="#ED2224" d="M391.768,208.416c-3.366,0-6.104-2.738-6.104-6.104c0-3.366,2.737-6.104,6.104-6.104
						c3.365,0,6.104,2.737,6.104,6.104C397.869,205.678,395.133,208.416,391.768,208.416z M391.768,197.717
						c-2.534,0-4.598,2.062-4.598,4.596c0,2.535,2.062,4.597,4.598,4.597c2.534,0,4.597-2.062,4.597-4.597
						C396.362,199.778,394.301,197.717,391.768,197.717z"/>
				</g>
				<g>
					<path fill="#ED2224" d="M391.768,211.298c-4.955,0-8.984-4.03-8.984-8.985c0-4.954,4.029-8.985,8.984-8.985
						c4.953,0,8.984,4.031,8.984,8.985C400.752,207.268,396.721,211.298,391.768,211.298z M391.768,194.835
						c-4.125,0-7.479,3.354-7.479,7.478s3.354,7.478,7.479,7.478c4.122,0,7.479-3.354,7.479-7.478S395.891,194.835,391.768,194.835z
						"/>
				</g>
				<g>
					<rect x="391.516" y="194.081" fill="#ED2224" width="0.502" height="2.882"/>
				</g>
				<g>
					
						<rect x="388.894" y="195.401" transform="matrix(-0.2078 -0.9782 0.9782 -0.2078 280.0515 618.1187)" fill="#ED2224" width="2.881" height="0.502"/>
				</g>
				<g>
					
						<rect x="387.515" y="195.854" transform="matrix(-0.4066 -0.9136 0.9136 -0.4066 367.9623 631.1947)" fill="#ED2224" width="2.882" height="0.501"/>
				</g>
				<g>
					
						<rect x="386.341" y="196.584" transform="matrix(-0.5876 -0.8092 0.8092 -0.5876 456.3566 626.2728)" fill="#ED2224" width="2.882" height="0.502"/>
				</g>
				<g>
					
						<rect x="385.277" y="197.497" transform="matrix(-0.7432 -0.669 0.669 -0.7432 541.8361 603.4489)" fill="#ED2224" width="2.883" height="0.502"/>
				</g>
				<g>
					
						<rect x="384.447" y="198.679" transform="matrix(-0.8661 -0.4998 0.4998 -0.8661 620.6865 564.1038)" fill="#ED2224" width="2.882" height="0.503"/>
				</g>
				<g>
					
						<rect x="383.882" y="199.97" transform="matrix(-0.9511 -0.3088 0.3088 -0.9511 689.9711 509.66)" fill="#ED2224" width="2.882" height="0.502"/>
				</g>
				<g>
					
						<rect x="383.57" y="201.35" transform="matrix(-0.9945 -0.1047 0.1047 -0.9945 746.7986 442.4072)" fill="#ED2224" width="2.882" height="0.503"/>
				</g>
				<g>
					
						<rect x="384.764" y="201.591" transform="matrix(-0.1048 -0.9945 0.9945 -0.1048 223.445 607.2029)" fill="#ED2224" width="0.503" height="2.882"/>
				</g>
				<g>
					
						<rect x="385.034" y="202.969" transform="matrix(-0.3086 -0.9512 0.9512 -0.3086 309.7727 633.9749)" fill="#ED2224" width="0.503" height="2.882"/>
				</g>
				<g>
					
						<rect x="385.644" y="204.291" transform="matrix(-0.5012 -0.8654 0.8654 -0.5012 401.2545 642.7756)" fill="#ED2224" width="0.503" height="2.885"/>
				</g>
				<g>
					
						<rect x="386.533" y="205.416" transform="matrix(-0.6704 -0.742 0.742 -0.6704 492.5716 632.5354)" fill="#ED2224" width="0.504" height="2.883"/>
				</g>
				<g>
					
						<rect x="387.502" y="206.366" transform="matrix(-0.8092 -0.5875 0.5875 -0.8092 579.4568 603.7689)" fill="#ED2224" width="0.502" height="2.882"/>
				</g>
				<g>
					
						<rect x="388.72" y="207.055" transform="matrix(-0.9141 -0.4054 0.4054 -0.9141 660.014 556.7822)" fill="#ED2224" width="0.501" height="2.882"/>
				</g>
				<g>
					
						<rect x="390.098" y="207.525" transform="matrix(-0.9782 -0.2077 0.2077 -0.9782 728.7919 494.4409)" fill="#ED2224" width="0.503" height="2.882"/>
				</g>
				<g>
					<rect x="391.516" y="207.662" fill="#ED2224" width="0.502" height="2.882"/>
				</g>
				<g>
					
						<rect x="391.717" y="208.685" transform="matrix(-0.2081 -0.9781 0.9781 -0.2081 270.6233 636.9704)" fill="#ED2224" width="2.881" height="0.503"/>
				</g>
				<g>
					
						<rect x="393.108" y="208.26" transform="matrix(-0.4068 -0.9135 0.9135 -0.4068 364.5565 653.7579)" fill="#ED2224" width="2.881" height="0.5"/>
				</g>
				<g>
					
						<rect x="394.326" y="207.568" transform="matrix(-0.588 -0.8089 0.8089 -0.588 460.3634 650.1398)" fill="#ED2224" width="2.88" height="0.503"/>
				</g>
				<g>
					
						<rect x="395.359" y="206.61" transform="matrix(-0.743 -0.6693 0.6693 -0.743 553.1752 626.1313)" fill="#ED2224" width="2.881" height="0.502"/>
				</g>
				<g>
					
						<rect x="396.209" y="205.469" transform="matrix(-0.866 -0.5001 0.5001 -0.866 639.1221 582.7313)" fill="#ED2224" width="2.881" height="0.503"/>
				</g>
				<g>
					
						<rect x="396.773" y="204.154" transform="matrix(-0.951 -0.3092 0.3092 -0.951 713.7101 521.922)" fill="#ED2224" width="2.88" height="0.502"/>
				</g>
				<g>
					
						<rect x="397.066" y="202.779" transform="matrix(-0.9945 -0.1047 0.1047 -0.9945 773.5554 446.6834)" fill="#ED2224" width="2.881" height="0.503"/>
				</g>
				<g>
					
						<rect x="398.276" y="200.179" transform="matrix(-0.103 -0.9947 0.9947 -0.103 239.0141 618.7878)" fill="#ED2224" width="0.503" height="2.881"/>
				</g>
				<g>
					
						<rect x="397.982" y="198.798" transform="matrix(-0.3072 -0.9517 0.9517 -0.3072 330.0024 640.7272)" fill="#ED2224" width="0.502" height="2.882"/>
				</g>
				<g>
					
						<rect x="397.408" y="197.501" transform="matrix(-0.5012 -0.8654 0.8654 -0.5012 424.789 642.7614)" fill="#ED2224" width="0.503" height="2.883"/>
				</g>
				<g>
					
						<rect x="396.549" y="196.337" transform="matrix(-0.6677 -0.7444 0.7444 -0.6677 514.5297 625.2201)" fill="#ED2224" width="0.503" height="2.882"/>
				</g>
				<g>
					
						<rect x="395.516" y="195.372" transform="matrix(-0.8094 -0.5872 0.5872 -0.8094 600.5553 588.5132)" fill="#ED2224" width="0.503" height="2.882"/>
				</g>
				<g>
					
						<rect x="394.281" y="194.65" transform="matrix(-0.9126 -0.4087 0.4087 -0.9126 674.4502 536.3175)" fill="#ED2224" width="0.503" height="2.881"/>
				</g>
				<g>
					
						<rect x="392.915" y="194.241" transform="matrix(-0.978 -0.2085 0.2085 -0.978 736.9001 469.0247)" fill="#ED2224" width="0.501" height="2.881"/>
				</g>
			</g>
			<g>
				<g>
					<path fill="#ED2224" d="M391.768,233.543c-3.366,0-6.104-2.738-6.104-6.104c0-3.364,2.737-6.103,6.104-6.103
						c3.365,0,6.104,2.738,6.104,6.103C397.869,230.805,395.133,233.543,391.768,233.543z M391.768,222.844
						c-2.534,0-4.598,2.062-4.598,4.595c0,2.534,2.062,4.597,4.598,4.597c2.534,0,4.597-2.062,4.597-4.597
						C396.362,224.905,394.301,222.844,391.768,222.844z"/>
				</g>
				<g>
					<path fill="#ED2224" d="M391.768,236.425c-4.955,0-8.984-4.031-8.984-8.986c0-4.954,4.029-8.984,8.984-8.984
						c4.953,0,8.984,4.03,8.984,8.984C400.752,232.394,396.721,236.425,391.768,236.425z M391.768,219.962
						c-4.125,0-7.479,3.354-7.479,7.477c0,4.124,3.354,7.479,7.479,7.479c4.122,0,7.479-3.354,7.479-7.479
						C399.243,223.316,395.891,219.962,391.768,219.962z"/>
				</g>
				<g>
					<rect x="391.516" y="219.208" fill="#ED2224" width="0.502" height="2.882"/>
				</g>
				<g>
					
						<rect x="388.933" y="220.548" transform="matrix(-0.2078 -0.9782 0.9782 -0.2078 255.5148 648.5342)" fill="#ED2224" width="2.881" height="0.502"/>
				</g>
				<g>
					
						<rect x="387.544" y="220.981" transform="matrix(-0.4066 -0.9136 0.9136 -0.4066 345.0478 666.566)" fill="#ED2224" width="2.882" height="0.501"/>
				</g>
				<g>
					
						<rect x="386.339" y="221.711" transform="matrix(-0.5876 -0.8092 0.8092 -0.5876 436.0203 666.1623)" fill="#ED2224" width="2.882" height="0.503"/>
				</g>
				<g>
					
						<rect x="385.285" y="222.624" transform="matrix(-0.7434 -0.6689 0.6689 -0.7434 525.1458 647.2208)" fill="#ED2224" width="2.882" height="0.502"/>
				</g>
				<g>
					
						<rect x="384.447" y="223.808" transform="matrix(-0.8661 -0.4998 0.4998 -0.8661 608.1268 610.9966)" fill="#ED2224" width="2.882" height="0.502"/>
				</g>
				<g>
					
						<rect x="383.883" y="225.098" transform="matrix(-0.9511 -0.3089 0.3089 -0.9511 682.1754 558.7184)" fill="#ED2224" width="2.881" height="0.502"/>
				</g>
				<g>
					
						<rect x="383.55" y="226.483" transform="matrix(-0.9945 -0.1044 0.1044 -0.9945 744.2054 492.4231)" fill="#ED2224" width="2.881" height="0.502"/>
				</g>
				<g>
					
						<rect x="384.757" y="226.724" transform="matrix(-0.1051 -0.9945 0.9945 -0.1051 198.5659 635.0191)" fill="#ED2224" width="0.502" height="2.882"/>
				</g>
				<g>
					
						<rect x="385.048" y="228.097" transform="matrix(-0.3092 -0.951 0.951 -0.3092 286.1516 666.9303)" fill="#ED2224" width="0.502" height="2.881"/>
				</g>
				<g>
					
						<rect x="385.65" y="229.394" transform="matrix(-0.502 -0.8649 0.8649 -0.502 379.9789 680.4678)" fill="#ED2224" width="0.502" height="2.883"/>
				</g>
				<g>
					
						<rect x="386.474" y="230.543" transform="matrix(-0.6698 -0.7426 0.7426 -0.6698 473.4782 674.5311)" fill="#ED2224" width="0.503" height="2.882"/>
				</g>
				<g>
					
						<rect x="387.522" y="231.454" transform="matrix(-0.809 -0.5878 0.5878 -0.809 564.5764 649.2471)" fill="#ED2224" width="0.503" height="2.881"/>
				</g>
				<g>
					
						<rect x="388.77" y="232.216" transform="matrix(-0.9145 -0.4047 0.4047 -0.9145 650.2021 604.759)" fill="#ED2224" width="0.502" height="2.882"/>
				</g>
				<g>
					
						<rect x="390.11" y="232.636" transform="matrix(-0.9786 -0.2058 0.2058 -0.9786 724.1884 543.485)" fill="#ED2224" width="0.503" height="2.882"/>
				</g>
				<g>
					<rect x="391.516" y="232.789" fill="#ED2224" width="0.502" height="2.882"/>
				</g>
				<g>
					
						<rect x="391.742" y="233.828" transform="matrix(-0.2081 -0.9781 0.9781 -0.2081 246.0474 667.3646)" fill="#ED2224" width="2.881" height="0.501"/>
				</g>
				<g>
					
						<rect x="393.108" y="233.387" transform="matrix(-0.4068 -0.9135 0.9135 -0.4068 341.6028 689.1062)" fill="#ED2224" width="2.881" height="0.501"/>
				</g>
				<g>
					
						<rect x="394.296" y="232.691" transform="matrix(-0.5877 -0.8091 0.8091 -0.5877 439.8589 690.0236)" fill="#ED2224" width="2.881" height="0.503"/>
				</g>
				<g>
					
						<rect x="395.372" y="231.738" transform="matrix(-0.7431 -0.6692 0.6692 -0.7431 536.4351 669.922)" fill="#ED2224" width="2.881" height="0.503"/>
				</g>
				<g>
					
						<rect x="396.2" y="230.568" transform="matrix(-0.8661 -0.4998 0.4998 -0.8661 626.6809 629.4881)" fill="#ED2224" width="2.882" height="0.504"/>
				</g>
				<g>
					
						<rect x="396.772" y="229.282" transform="matrix(-0.9511 -0.3089 0.3089 -0.9511 706.0488 570.8469)" fill="#ED2224" width="2.88" height="0.502"/>
				</g>
				<g>
					
						<rect x="397.066" y="227.889" transform="matrix(-0.9945 -0.1044 0.1044 -0.9945 771.0161 496.6385)" fill="#ED2224" width="2.881" height="0.502"/>
				</g>
				<g>
					
						<rect x="398.264" y="225.307" transform="matrix(-0.1051 -0.9945 0.9945 -0.1051 214.9034 646.8851)" fill="#ED2224" width="0.502" height="2.88"/>
				</g>
				<g>
					
						<rect x="397.987" y="223.886" transform="matrix(-0.3086 -0.9512 0.9512 -0.3086 306.8278 673.6675)" fill="#ED2224" width="0.503" height="2.881"/>
				</g>
				<g>
					
						<rect x="397.385" y="222.596" transform="matrix(-0.5012 -0.8654 0.8654 -0.5012 403.0396 680.4106)" fill="#ED2224" width="0.503" height="2.882"/>
				</g>
				<g>
					
						<rect x="396.549" y="221.432" transform="matrix(-0.6671 -0.7449 0.7449 -0.6671 495.4954 667.1483)" fill="#ED2224" width="0.502" height="2.88"/>
				</g>
				<g>
					
						<rect x="395.484" y="220.498" transform="matrix(-0.8092 -0.5875 0.5875 -0.8092 585.5956 634.0273)" fill="#ED2224" width="0.502" height="2.883"/>
				</g>
				<g>
					
						<rect x="394.269" y="219.781" transform="matrix(-0.9137 -0.4063 0.4063 -0.9137 665.1192 583.6603)" fill="#ED2224" width="0.502" height="2.881"/>
				</g>
				<g>
					
						<rect x="392.908" y="219.365" transform="matrix(-0.9779 -0.2089 0.2089 -0.9779 731.5277 518.8575)" fill="#ED2224" width="0.5" height="2.881"/>
				</g>
			</g>
			<g>
				<path fill="#ED2224" d="M402.654,131.246h-23.912v-18.133h23.912V131.246z M380.25,129.738h20.896v-15.117H380.25V129.738z"/>
			</g>
			<g>
				<path fill="#ED2224" d="M494.975,442.627H5.025c-2.771,0-5.024-2.254-5.024-5.023v-119.85c0-2.771,2.254-5.025,5.024-5.025
					h489.95c2.771,0,5.023,2.254,5.023,5.025v119.85C500,440.373,497.745,442.627,494.975,442.627z M5.025,316.748
					c-0.554,0-1.005,0.451-1.005,1.006v119.85c0,0.556,0.451,1.007,1.005,1.007h489.95c0.556,0,1.004-0.451,1.004-1.007v-119.85
					c0-0.555-0.448-1.006-1.004-1.006H5.025z"/>
			</g>
			<g>
				<g>
					<path fill="#ED2224" d="M459.691,420.386H317.475v-85.417h142.22v85.417H459.691z M318.982,418.879h139.202v-82.402H318.982
						V418.879z"/>
				</g>
				<g>
					<path fill="#ED2224" d="M405,370.917h-33.503c-0.739,0-1.257-0.396-1.257-0.964V345.37c0-0.567,0.518-0.964,1.257-0.964H405
						c0.739,0,1.256,0.396,1.256,0.964v24.583C406.256,370.521,405.74,370.917,405,370.917z M371.748,369.409h32.999v-23.496
						h-32.999V369.409z"/>
				</g>
				<g>
					<path fill="#ED2224" d="M405,405.548h-33.503c-0.739,0-1.257-0.396-1.257-0.964v-24.582c0-0.566,0.518-0.964,1.257-0.964H405
						c0.739,0,1.256,0.396,1.256,0.964v24.582C406.256,405.151,405.74,405.548,405,405.548z M371.748,404.041h32.999v-23.496
						h-32.999V404.041z"/>
				</g>
				<g>
					<path fill="#ED2224" d="M452.762,380.545H323.735c-0.683,0-1.234-0.554-1.234-1.234v-8.666c0-0.682,0.555-1.232,1.234-1.232
						H452.76c0.684,0,1.234,0.554,1.234,1.232v8.666C453.996,379.991,453.443,380.545,452.762,380.545z M324.008,379.038H452.49
						v-8.121H324.008V379.038z"/>
				</g>
				<g>
					<rect x="323.254" y="374.223" fill="#ED2224" width="129.989" height="1.508"/>
				</g>
			</g>
			<g>
				<g>
					<path fill="#ED2224" d="M318.982,420.386H176.764v-85.417h142.219L318.982,420.386L318.982,420.386z M178.271,418.879h139.204
						v-82.402H178.271V418.879z"/>
				</g>
				<g>
					<path fill="#ED2224" d="M264.289,370.917h-33.502c-0.74,0-1.257-0.396-1.257-0.964V345.37c0-0.567,0.518-0.964,1.257-0.964
						h33.502c0.739,0,1.256,0.396,1.256,0.964v24.583C265.545,370.521,265.029,370.917,264.289,370.917z M231.038,369.409h33
						v-23.496h-33V369.409z"/>
				</g>
				<g>
					<path fill="#ED2224" d="M264.289,405.548h-33.502c-0.74,0-1.257-0.396-1.257-0.964v-24.582c0-0.566,0.518-0.964,1.257-0.964
						h33.502c0.739,0,1.256,0.396,1.256,0.964v24.582C265.545,405.151,265.029,405.548,264.289,405.548z M231.038,404.041h33
						v-23.496h-33V404.041z"/>
				</g>
				<g>
					<path fill="#ED2224" d="M312.052,380.545H183.025c-0.682,0-1.234-0.554-1.234-1.234v-8.666c0-0.682,0.554-1.232,1.234-1.232
						h129.027c0.683,0,1.234,0.554,1.234,1.232v8.666C313.286,379.991,312.732,380.545,312.052,380.545z M183.297,379.038h128.481
						v-8.121H183.297V379.038z"/>
				</g>
				<g>
					<rect x="182.543" y="374.223" fill="#ED2224" width="129.989" height="1.508"/>
				</g>
			</g>
			<g>
				<path fill="#ED2224" d="M52.386,374.727H25.751v-26.636h26.635V374.727z M27.259,373.219h23.619V349.6H27.259V373.219z"/>
			</g>
			<g>
				<path fill="#ED2224" d="M20.475,422.216H15.7v-38.694h4.773L20.475,422.216L20.475,422.216z M17.208,420.708h1.759v-35.681
					h-1.759V420.708z"/>
			</g>
			<g>
				<path fill="#ED2224" d="M28.013,422.216H23.24v-38.694h4.772V422.216z M24.746,420.708h1.759v-35.681h-1.759V420.708z"/>
			</g>
			<g>
				<path fill="#ED2224" d="M35.551,422.216h-4.774v-38.694h4.774V422.216z M32.284,420.708h1.759v-35.681h-1.759V420.708z"/>
			</g>
			<g>
				<path fill="#ED2224" d="M43.089,422.216h-4.774v-38.694h4.774V422.216z M39.822,420.708h1.76v-35.681h-1.76V420.708z"/>
			</g>
			<g>
				<path fill="#ED2224" d="M50.627,422.216h-4.774v-38.694h4.774V422.216z M47.36,420.708h1.76v-35.681h-1.76V420.708z"/>
			</g>
			<g>
				<path fill="#ED2224" d="M58.165,422.216h-4.774v-38.694h4.774V422.216z M54.898,420.708h1.76v-35.681h-1.76V420.708z"/>
			</g>
			<g>
				<path fill="#ED2224" d="M65.703,422.216h-4.774v-38.694h4.774V422.216z M62.437,420.708h1.759v-35.681h-1.759V420.708z"/>
			</g>
			<g>
				<path fill="#ED2224" d="M73.241,422.216h-4.774v-38.694h4.774V422.216z M69.975,420.708h1.759v-35.681h-1.759V420.708z"/>
			</g>
			<g>
				<path fill="#ED2224" d="M80.779,422.216h-4.773v-38.694h4.773V422.216z M77.513,420.708h1.759v-35.681h-1.759V420.708z"/>
			</g>
			<g>
				<path fill="#ED2224" d="M88.317,422.216h-4.773v-38.694h4.773V422.216z M85.051,420.708h1.759v-35.681h-1.759V420.708z"/>
			</g>
			<g>
				<path fill="#ED2224" d="M95.855,422.216h-4.773v-38.694h4.773V422.216z M92.588,420.708h1.759v-35.681h-1.759V420.708z"/>
			</g>
			<g>
				<path fill="#ED2224" d="M103.393,422.216h-4.773v-38.694h4.773V422.216z M100.126,420.708h1.759v-35.681h-1.759V420.708z"/>
			</g>
			<g>
				<path fill="#ED2224" d="M110.932,422.216h-4.773v-38.694h4.773V422.216z M107.665,420.708h1.759v-35.681h-1.759V420.708z"/>
			</g>
			<g>
				<path fill="#ED2224" d="M118.47,422.216h-4.773v-38.694h4.773V422.216z M115.203,420.708h1.759v-35.681h-1.759V420.708z"/>
			</g>
			<g>
				<path fill="#ED2224" d="M126.007,422.216h-4.774v-38.694h4.774V422.216z M122.741,420.708h1.759v-35.681h-1.759V420.708z"/>
			</g>
			<g>
				<path fill="#ED2224" d="M133.545,422.216h-4.774v-38.694h4.774V422.216z M130.279,420.708h1.76v-35.681h-1.76V420.708z"/>
			</g>
			<g>
				<path fill="#ED2224" d="M141.083,422.216h-4.774v-38.694h4.774V422.216z M137.817,420.708h1.76v-35.681h-1.76V420.708z"/>
			</g>
			<g>
				<path fill="#ED2224" d="M381.297,315.492H135.556v-15.646h245.741V315.492z M137.063,313.984h242.726v-12.629H137.063V313.984z"
					/>
			</g>
			<g>
				<path fill="#ED2224" d="M363.706,315.492H153.144v-15.646h210.562V315.492z M154.652,313.984h207.548v-12.629H154.652V313.984z"
					/>
			</g>
			<g>
				<path fill="#ED2224" d="M469.347,426.798H167.085v-98.491h302.262V426.798z M170.101,423.783h296.23V331.32h-296.23V423.783z"/>
			</g>
		</g>
		<g display="inline">
			<g>
				<g>
					<path fill="#ED2224" d="M327.322,461.032H172.678c-6.451,0-13.763,0-15.16-3.093c-0.603-1.336-0.075-2.913,1.61-4.825
						l29.212-29.039c5.122-6.188,6.361-25.695,5.811-41.907l-0.028-0.854h111.754l-0.028,0.854
						c-0.548,16.214,0.689,35.723,5.812,41.907l29.175,29c1.723,1.951,2.25,3.528,1.646,4.864
						C341.086,461.032,333.773,461.032,327.322,461.032z M195.827,382.965c0.261,8.919,0.376,34.271-6.244,42.196l-0.051,0.056
						l-29.203,29.028c-0.784,0.893-1.686,2.179-1.308,3.016c0.958,2.122,8.6,2.122,13.656,2.122h154.646
						c5.058,0,12.695,0,13.654-2.122c0.377-0.837-0.521-2.123-1.345-3.055l-29.217-29.045c-6.617-7.923-6.504-33.276-6.243-42.196
						H195.827L195.827,382.965z"/>
				</g>
			</g>
			<g>
				<path fill="#ED2224" d="M483.043,384.339H16.957C7.607,384.339,0,376.427,0,366.7V56.607c0-9.727,7.606-17.64,16.957-17.64
					h466.086c9.35,0,16.957,7.913,16.957,17.64V366.7C500,376.427,492.393,384.339,483.043,384.339z M16.957,43.366
					c-6.925,0-12.559,5.938-12.559,13.241V366.7c0,7.301,5.634,13.239,12.559,13.239h466.086c6.926,0,12.559-5.938,12.559-13.239
					V56.607c0-7.302-5.633-13.241-12.559-13.241H16.957L16.957,43.366z"/>
			</g>
			<g>
				<path fill="#ED2224" d="M499.449,328.705H0.55V57.169c0-9.733,7.36-17.651,16.407-17.651h466.086
					c9.047,0,16.406,7.918,16.406,17.651V328.705z M3.849,325.404H496.15V57.169c0-7.914-5.879-14.353-13.106-14.353H16.957
					c-7.229,0-13.108,6.438-13.108,14.353V325.404z"/>
			</g>
			<g>
				<path fill="#ED2224" d="M479.52,306.732H20.086V59.253H479.52V306.732z M21.736,305.083h456.133V60.902H21.736V305.083z"/>
			</g>
		</g>
		<path display="inline" fill="#ED2224" d="M118.418,500h263.163V0H118.418V500z M263.156,486.844h-26.312V460.53h26.312V486.844z
			 M210.523,13.16h78.954v13.153h-78.954V13.16L210.523,13.16z M164.471,26.313c3.635,0,6.58,2.95,6.58,6.579
			c0,3.639-2.945,6.58-6.58,6.58s-6.573-2.94-6.573-6.58C157.897,29.264,160.836,26.313,164.471,26.313z M144.738,65.789H355.26
			v381.578H144.738V65.789z"/>
		<path display="inline" fill="#ED2224" d="M409.828,0H90.172C70.578,0,54.545,16.034,54.545,35.627v428.746
			c0,19.593,16.033,35.627,35.627,35.627h319.656c19.594,0,35.626-16.034,35.626-35.627V35.627C445.454,16.034,429.422,0,409.828,0z
			 M250,18.181c2.508,0,4.547,2.039,4.547,4.546c0,2.512-2.039,4.546-4.547,4.546c-2.517,0-4.545-2.034-4.545-4.546
			C245.455,20.22,247.484,18.181,250,18.181z M250,490.909c-7.533,0-13.639-6.104-13.639-13.636c0-7.534,6.104-13.642,13.639-13.642
			c7.528,0,13.635,6.104,13.635,13.642C263.635,484.808,257.529,490.909,250,490.909z M400,454.545H99.998V45.453H400V454.545z"/>
		<path display="inline" fill="#ED2224" d="M322.502,0H177.499c-25.054,0-45.555,20.504-45.555,45.554v408.895
			c0,25.053,20.501,45.553,45.555,45.553h145.003c25.053,0,45.553-20.5,45.553-45.553V45.553C368.055,20.503,347.555,0,322.502,0z
			 M250.002,13.89c3.832,0,6.938,3.115,6.938,6.945c0,3.837-3.106,6.945-6.938,6.945c-3.842,0-6.945-3.108-6.945-6.945
			C243.057,17.005,246.161,13.89,250.002,13.89z M229.167,41.668h41.666c3.83,0,6.943,3.111,6.943,6.942
			c0,3.843-3.113,6.944-6.943,6.944h-41.666c-3.836,0-6.945-3.103-6.945-6.944C222.221,44.78,225.331,41.668,229.167,41.668z
			 M250.002,486.113c-11.51,0-20.836-9.322-20.836-20.832c0-11.514,9.326-20.836,20.836-20.836c11.503,0,20.83,9.322,20.83,20.836
			C270.832,476.791,261.506,486.113,250.002,486.113z M354.163,430.557H145.835V69.447h208.328V430.557z"/>
		<path display="inline" fill="#ED2224" d="M314.105,0H185.9c-28.319,0-64.104,10.143-64.104,38.461v410.258
			c0,28.32,35.784,51.281,64.104,51.281h128.207c28.319,0,64.101-22.961,64.101-51.281V38.46C378.204,10.142,342.426,0,314.105,0z
			 M307.693,25.644c3.537,0,6.412,2.87,6.412,6.408c0,3.544-2.875,6.408-6.412,6.408c-3.541,0-6.409-2.864-6.409-6.408
			C301.283,28.514,304.152,25.644,307.693,25.644z M224.361,25.644h51.284V38.46h-51.284V25.644z M275.645,463.123
			c0,6.205-5.037,11.238-11.244,11.238h-28.793c-6.212,0-11.244-5.033-11.244-11.238v-1.584h51.284v1.584H275.645z M365.389,435.898
			H134.618V51.283h230.771V435.898L365.389,435.898z"/>
		<path display="inline" fill="#ED2224" d="M366.666,0H133.334C115.004,0,100,15,100,33.332v433.335
			C100,485,115.004,500,133.334,500h233.332C385.002,500,400,485,400,466.667V33.332C400,15,385.002,0,366.666,0z M250,22.22
			c3.063,0,5.557,2.492,5.557,5.558c0,3.07-2.492,5.556-5.557,5.556c-3.069,0-5.558-2.484-5.558-5.556
			C244.443,24.712,246.931,22.22,250,22.22z M266.669,444.444h-33.333v-11.11h33.333V444.444z M366.666,422.222H133.334V55.555
			h233.332V422.222z"/>
		<g display="inline">
			<path fill="#231F20" d="M464.562,366.825c-11.728,26.026-17.334,37.644-32.439,60.643c-21.055,32.114-50.759,72.11-87.55,72.451
				c-32.705,0.304-41.097-21.312-85.479-21.065c-44.369,0.248-53.631,21.454-86.333,21.146
				c-36.808-0.324-64.948-36.45-86.021-68.562C27.818,341.641,21.656,236.24,58.006,180.216
				c25.815-39.827,66.562-63.12,104.869-63.12c38.998,0,63.517,21.417,95.758,21.417c31.286,0,50.353-21.454,95.445-21.454
				c34.069,0,70.188,18.58,95.926,50.713C365.674,214.023,379.385,334.59,464.562,366.825L464.562,366.825z"/>
			<path fill="#231F20" d="M319.857,81.176C336.23,60.123,348.688,30.388,344.172,0c-26.754,1.842-58.062,18.893-76.347,41.125
				c-16.594,20.175-30.284,50.097-24.945,79.176C272.094,121.202,302.311,103.732,319.857,81.176L319.857,81.176z"/>
		</g>
		<g display="inline">
			<polygon fill="#231F20" points="228.214,231.662 494.682,231.662 494.682,0 228.214,40.549 			"/>
			<polygon fill="#231F20" points="203.391,231.662 203.391,44.327 5.319,74.468 5.319,231.662 			"/>
			<polygon fill="#231F20" points="203.391,256.486 5.319,256.486 5.319,422.873 203.391,454.09 			"/>
			<polygon fill="#231F20" points="228.214,256.486 228.214,458.002 494.682,500 494.682,256.486 			"/>
		</g>
	</g>
	<g display="inline">
		<path d="M476.699,79.955c-69.398-9.972-146.082-15.499-226.691-15.499c-80.626,0-157.309,5.527-226.726,15.499
			C9.98,132.031,2.611,189.521,2.611,249.996c0,60.482,7.369,117.98,20.671,170.049c69.417,9.964,146.1,15.499,226.726,15.499
			c80.609,0,157.292-5.535,226.691-15.499c13.32-52.068,20.689-109.566,20.689-170.049
			C497.389,189.521,490.02,132.031,476.699,79.955z M188.151,342.774V157.226l154.629,92.77L188.151,342.774z"/>
	</g>
</g>
<g id="Layer_3_1_">
	<g>
		<path d="M249.977,200.489c-41,0-74.244,33.258-74.244,74.259c0,41.031,33.244,74.26,74.244,74.26
			c41.031,0,74.291-33.229,74.291-74.26C324.268,233.747,291.008,200.489,249.977,200.489z M448.024,126.229h-59.408
			c-8.164,0-16.961-6.341-19.553-14.099l-15.363-46.077c-2.576-7.757-11.373-14.083-19.551-14.083H165.822
			c-8.164,0-16.96,6.326-19.551,14.083l-15.349,46.077c-2.606,7.757-11.372,14.099-19.566,14.099H51.962
			c-27.249,0-49.511,22.263-49.511,49.497v222.809c0,27.219,22.263,49.496,49.511,49.496h396.062
			c27.232,0,49.525-22.277,49.525-49.496V175.726C497.549,148.492,475.256,126.229,448.024,126.229z M249.977,398.534
			c-68.325,0-123.756-55.432-123.756-123.786c0-68.355,55.431-123.771,123.756-123.771c68.355,0,123.787,55.416,123.787,123.771
			C373.764,343.103,318.332,398.534,249.977,398.534z M430.701,210.355c-9.566,0-17.322-7.757-17.322-17.337
			c0-9.565,7.756-17.322,17.322-17.322c9.578,0,17.322,7.757,17.322,17.322C448.024,202.598,440.28,210.355,430.701,210.355z"/>
	</g>
</g>
<g id="Layer_2" display="none">
	<g display="inline">
		<path d="M433.33,127.792V66.674H5.569v336.127c0,16.852,13.655,30.525,30.542,30.525h412.5c25.311,0,45.821-20.51,45.821-45.821
			V127.792H433.33z M402.771,402.801H36.111V97.216h366.66V402.801z M66.669,158.335H372.21v30.576H66.669V158.335z
			 M249.991,219.437H372.21v30.56H249.991V219.437z M249.991,280.564H372.21v30.542H249.991V280.564z M249.991,341.666h91.66v30.559
			h-91.66V341.666z M66.669,219.437h152.763v152.788H66.669V219.437z"/>
	</g>
</g>
</svg>
